<svg xmlns="http://www.w3.org/2000/svg" xmlns:xlink="http://www.w3.org/1999/xlink" viewBox="0,0,256,256" width="50px" height="50px" fill-rule="nonzero"><g fill="#ffffff" fill-rule="nonzero" stroke="none" stroke-width="1" stroke-linecap="butt" stroke-linejoin="miter" stroke-miterlimit="10" stroke-dasharray="" stroke-dashoffset="0" font-family="none" font-weight="none" font-size="none" text-anchor="none" style="mix-blend-mode: normal"><g transform="scale(5.12,5.12)"><path d="M24.40039,9c-6.35291,0 -12.5585,0.49125 -16.10156,1.2207l-0.02148,0.00391l-0.01953,0.00586c-2.28468,0.57117 -4.05738,2.15111 -4.43945,4.2832v0.00195c-0.41628,2.18606 -0.81836,5.82744 -0.81836,10.48438c0,4.94188 0.50092,8.39357 1.01953,10.58594c0.38082,2.12603 2.13692,3.82543 4.48437,4.29492h0.00195h0.00391c3.71677,0.72271 9.73647,1.21875 15.99023,1.21875c6.25376,0 12.37162,-0.49538 16.0918,-1.21875l0.02539,-0.00391l0.02539,-0.00586c2.28914,-0.57229 4.06404,-2.15846 4.44141,-4.29687l0.00195,-0.01172l0.00195,-0.00977c0.40147,-2.60952 0.91027,-6.1672 1.01172,-10.63086v-0.00977v-0.01172c0,-3.67203 -0.40792,-7.23036 -1.01562,-10.57422c-0.38398,-2.17587 -2.2424,-3.71737 -4.42969,-4.29297l-0.05273,-0.01367l-0.05664,-0.00976c-3.46991,-0.51013 -9.39478,-1.00977 -16.14453,-1.00977zM24.40039,11c6.61041,0 12.43297,0.49552 15.77344,0.98242c1.59405,0.43047 2.72696,1.47623 2.94141,2.69141v0.00195v0.00391c0.59085,3.24966 0.9832,6.68468 0.98438,10.20508c-0.0989,4.32442 -0.58845,7.75867 -0.98633,10.3457c-0.22344,1.25523 -1.2431,2.26164 -2.94141,2.69141c-3.48443,0.67388 -9.54224,1.17773 -15.67187,1.17773c-6.14537,0 -12.12398,-0.50449 -15.60742,-1.18164h-0.00195c-1.64406,-0.33129 -2.68276,-1.42495 -2.90625,-2.69141l-0.00391,-0.0293l-0.00781,-0.0293c-0.47846,-2.00953 -0.97266,-5.336 -0.97266,-10.16797c0,-4.54203 0.39958,-8.09926 0.7832,-10.11328v-0.00586l0.00195,-0.00781c0.222,-1.25794 1.24328,-2.26743 2.94531,-2.69727c3.26261,-0.66838 9.43645,-1.17578 15.66992,-1.17578zM19,16.9668v1.73242v14.33398l13.89844,-8.0332zM21,20.43359l7.90234,4.56641l-7.90234,4.56641z"></path></g></g></svg>